<svg width="41" height="41" viewBox="0 0 41 41" fill="none" xmlns="http://www.w3.org/2000/svg">
<g clip-path="url(#clip0_381_2441)">
<path d="M20.4858 0.712891C9.44024 0.712891 0.48584 9.66729 0.48584 20.7129C0.48584 30.0921 6.94344 37.9625 15.6546 40.1241V26.8249H11.5306V20.7129H15.6546V18.0793C15.6546 11.2721 18.7354 8.11689 25.4186 8.11689C26.6858 8.11689 28.8722 8.36569 29.7666 8.61369V14.1537C29.2946 14.1041 28.4746 14.0793 27.4562 14.0793C24.177 14.0793 22.9098 15.3217 22.9098 18.5513V20.7129H29.4426L28.3202 26.8249H22.9098V40.5665C32.813 39.3705 40.4866 30.9385 40.4866 20.7129C40.4858 9.66729 31.5314 0.712891 20.4858 0.712891Z" fill="#FFFDFA"/>
</g>
<defs>
<clipPath id="clip0_381_2441">
<rect width="40" height="40" fill="white" transform="translate(0.48584 0.712891)"/>
</clipPath>
</defs>
</svg>
