<svg width="306" height="253" viewBox="0 0 306 253" fill="none" xmlns="http://www.w3.org/2000/svg">
<g clip-path="url(#clip0_373_2160)">
<path d="M288.739 141.789H289.257C289.203 146.907 291.292 157.242 291.322 158.063C291.875 173.558 290.239 189.053 290.804 204.565C285.859 211.67 292.988 213.181 283.056 218.001C285.139 231.651 279.681 225.671 277.372 228.848C276.771 229.675 275.676 237.416 274.272 239.184C272.278 241.695 255.252 246.663 250.241 246.157C233.506 244.473 210.808 206.671 207.868 206.374C203.672 212.032 194.847 219.595 191.591 224.201C184.408 234.352 188.199 243.855 166.269 233.501C175.827 212.711 190.401 194.438 201.923 174.605C210.35 166.031 220.134 173.594 218.973 168.405C218.759 167.435 216.64 167.887 215.355 164.014C216.575 163.823 216.331 164.52 216.39 164.531L224.139 169.958C211.129 167.81 223.77 172.398 225.948 173.832C227.662 174.962 230.953 178.479 232.667 178.997C238.172 180.675 237.047 178.074 237.577 177.449C238.136 176.783 238.463 176.057 238.612 175.902C240.332 174.07 242.046 171.428 244.813 171.767V172.285C240.874 172.659 235.755 180.49 238.094 183.65C239.023 184.905 239.308 184.798 240.677 185.197L239.13 186.232C238.701 186.417 233.333 176.973 233.446 180.805C233.494 182.507 238.273 185.839 239.13 186.75C239.445 187.083 239.844 187.452 240.165 187.785C242.385 190.1 245.908 193.319 247.402 195.021C247.652 195.306 247.908 195.931 248.438 196.568C255.894 205.576 254.68 206.433 256.186 208.706C257.239 210.301 260.554 213.437 261.869 215.424C263.381 217.709 262.863 221.023 265.226 222.916C289.316 232.644 281.038 221.785 282.02 217.489C282.163 216.864 283.633 216.584 284.085 216.198C284.716 215.656 284.698 215.609 284.603 214.651C290.858 214.561 285.906 207.855 290.287 203.024C289.566 182.846 291.792 162.55 288.221 142.575L281.503 138.439C282.068 137.071 287.626 141.534 288.739 141.795V141.789Z" fill="#010103"/>
<path d="M211.748 199.138C211.802 199.049 211.635 198.567 212.266 198.62C219.937 206.921 222.883 217.483 230.096 226.004L223.639 219.03C221.062 211.651 216.45 205.356 211.754 199.138H211.748Z" fill="#5B5D62"/>
<path d="M212.266 198.62C211.635 198.567 211.802 199.049 211.748 199.138C210.671 200.947 207.154 208.064 207.612 204.565C207.695 203.916 213.855 196.889 210.713 192.682C215.14 192.057 212.486 186.25 215.36 186.482L212.26 198.62H212.266Z" fill="#D6D5D4"/>
<path d="M244.819 172.273C246.67 172.1 246.295 172.755 246.366 172.79C241.647 174.165 238.451 178.86 238.1 183.638C235.761 180.478 240.879 172.647 244.819 172.273Z" fill="#D7E2F9"/>
<path d="M239.136 186.226V186.743C238.273 185.833 233.5 182.507 233.452 180.799C233.339 176.967 238.713 186.404 239.136 186.226Z" fill="#FFFDFA"/>
<path d="M305.319 250.816L170.667 251.839V250.804C180.832 251 186.176 252.244 181.516 240.468C160.574 244.378 172.161 241.397 170.923 237.113C169.721 232.947 162.377 239.665 166.275 229.877C169.899 220.767 191.931 190.004 197.793 177.181C200.554 174.641 202.69 171.279 206.577 170.463C199.298 165.959 194.406 162.901 188.491 170.981C187.015 172.992 170.161 207.433 165.757 215.412C164.478 217.732 161.079 220.19 160.592 221.094C160.151 221.91 161.145 222.57 161.109 222.641C153.224 237.69 156.164 232.608 161.365 234.78C168.042 237.565 157.491 242.849 156.2 242.527C153.135 241.766 159.746 235.119 155.164 234.78C154.414 234.726 146.785 240.48 142.244 242.527C139.875 243.598 134.353 243.301 133.204 245.883C129.562 254.041 146.945 247.668 143.797 251.828L0.48584 251.655C0.616767 252.095 0.706035 252.542 0.765547 252.988C102.359 253 203.928 252.345 305.486 252.345C305.385 251.834 305.325 251.316 305.319 250.804V250.816Z" fill="#010103"/>
<path d="M156.199 243.057L155.682 244.604L145.344 250.287L148.445 246.669L134.751 246.413L151.028 246.157L156.199 243.057Z" fill="#979398"/>
<path d="M236.035 142.307L248.955 141.533L236.553 153.416C244.819 149.923 250.913 136.767 241.718 156.772C241.701 156.808 241.147 156.653 241.201 157.29C240.879 156.736 240.064 155.272 239.136 155.742C237.196 156.712 238.564 157.313 237.844 157.807C237.297 158.182 236.428 156.736 236.297 156.772C234.964 157.159 235.827 159.533 235.523 160.39C232.274 160.33 229.078 159.842 226.221 158.325C222.311 153.815 219.205 142.331 216.92 135.851C214.259 128.3 208.796 128.05 224.93 122.677C227.197 125.479 233.958 141.872 236.041 142.307H236.035Z" fill="#0060FF"/>
<path d="M288.739 141.789C287.626 141.527 282.074 137.065 281.503 138.433L288.221 142.569C291.792 162.544 289.566 182.84 290.286 203.018C285.906 207.849 290.858 214.549 284.603 214.644C278.211 214.74 271.362 209.432 267.035 205.088C267.255 203.291 271.433 205.404 274.528 202.762L284.603 206.118C275.992 201.221 272.659 205.189 278.658 196.561C285.353 197.823 279.545 195.788 279.431 195.27C279.354 194.895 282.377 191.492 283.05 188.552C284.157 183.703 284.776 158.759 283.05 176.67C279.914 169.892 287.549 154.921 280.467 145.151C279.467 143.777 275.414 140.855 275.039 140.76C269.529 139.385 281.157 143.295 282.532 152.387C283.3 157.468 281.122 186.422 279.431 191.652C275.063 205.183 268.785 205.582 257.727 198.626C255.906 197.484 245.748 189.112 245.843 187.517C246.408 186.922 247.033 186.482 247.39 185.708C248.967 186.143 250.092 189.165 251.782 190.355C261.643 197.323 276.605 188.017 271.933 188.291C264.434 194.342 251.175 193.806 248.164 183.126C246.724 182.947 247.711 185.012 247.39 185.708C246.819 185.553 240.397 187.832 246.872 177.699C247.247 177.11 250.8 173.349 251.264 173.308L269.094 181.835C268.606 178.955 260.06 177.283 259.792 175.634C261.375 173.79 261.143 171.82 261.34 169.69C262.25 160.116 263.322 150.744 267.023 141.789C267.089 141.724 267.434 141.611 268.57 140.754C275.962 135.232 287.269 133.215 288.721 141.789H288.739Z" fill="#0060FF"/>
<path d="M257.221 199.138C257.948 200.025 262.03 211.842 270.915 217.221C284.561 223.617 268.291 215.43 264.97 210.765C250.169 188.552 267.428 208.218 275.045 212.574C277.842 214.174 281.032 215.222 284.085 216.191C283.633 216.578 282.163 216.858 282.02 217.483C281.038 221.779 289.322 232.638 265.226 222.909C262.857 221.017 263.381 217.703 261.869 215.418C260.554 213.431 257.239 210.295 256.186 208.7C254.68 206.421 255.894 205.57 248.438 196.562C248.878 191.98 255.823 197.436 257.221 199.144V199.138Z" fill="#0060FF"/>
<path d="M246.366 172.79C246.563 172.873 248.045 172.725 248.431 174.599C240.6 183.001 246.598 186.922 240.683 185.19C239.314 184.786 239.028 184.899 238.1 183.643C238.451 178.865 241.653 174.17 246.366 172.796V172.79Z" fill="#0060FF"/>
<path d="M247.402 195.008C245.914 193.313 242.391 190.094 240.165 187.773C239.487 182.858 249.866 192.521 249.985 193.2C250.092 193.842 248.116 195.068 247.402 195.008Z" fill="#157BFF"/>
<path d="M270.653 127.324C273.147 127.015 286.24 128.008 279.955 130.424C279.348 130.656 267.797 133.935 267.297 133.524C266.964 133.25 265.773 127.937 270.653 127.324Z" fill="#0060FF"/>
<path d="M289.257 141.789H288.739C287.281 133.221 275.974 135.232 268.588 140.754C268.719 140.724 269.963 138.469 269.362 138.172C268.303 137.642 266.315 141.313 268.588 140.754C267.446 141.605 267.106 141.724 267.041 141.789C261.524 146.913 259.917 162.401 261.358 169.69C261.155 171.815 261.387 173.784 259.81 175.635C260.078 177.283 268.618 178.955 269.112 181.835L251.282 173.308C250.818 173.356 247.265 177.11 246.89 177.699C240.415 187.833 246.831 185.548 247.408 185.708C247.051 186.482 246.426 186.922 245.861 187.517C245.765 189.112 255.924 197.478 257.745 198.627L257.227 199.144C255.829 197.436 248.884 191.98 248.443 196.562C247.914 195.919 247.658 195.294 247.408 195.015C248.122 195.074 250.104 193.848 249.991 193.206C249.878 192.528 239.499 182.87 240.171 187.779C239.85 187.446 239.451 187.077 239.136 186.744V186.226L240.683 185.191C246.604 186.922 240.606 183.001 248.432 174.599C248.039 172.725 246.557 172.874 246.366 172.79C246.289 172.761 246.664 172.1 244.819 172.273V171.755C243.194 168.905 242.028 165.608 241.201 162.455C241.123 162.163 241.278 161.711 241.201 161.419C240.998 160.652 241.802 158.76 239.136 156.255V155.737C240.064 155.273 240.879 156.731 241.201 157.284C242.647 159.759 242.504 161.955 243.528 164.52C244.028 161.544 244.688 157.986 245.855 155.219C247.753 150.709 253.817 146.014 250.764 140.754C247.848 142.42 243.742 153.178 243.79 153.928C243.819 154.422 245.724 153.666 245.337 155.219L241.719 156.766C250.913 136.761 244.819 149.918 236.553 153.41L248.955 141.528L236.035 142.301C235.999 141.879 236.095 141.355 236.035 141.266C242.07 140.332 253.228 142.759 251.02 136.619C251.354 136.589 251.77 136.69 252.056 136.619C252.49 147.609 253.27 136.678 263.423 131.454C263.369 132.061 263.756 131.9 263.94 131.971C258.941 133.048 247.295 150.233 255.674 143.337C247.765 152.976 246.599 154.005 243.272 167.364C247.057 173.433 248.033 172.546 253.609 173.046C253.764 168.822 253.496 161.919 254.127 158.063C255.264 151.114 260.066 142.866 255.936 156.255C260.245 148.971 251.961 166.257 254.645 170.982H255.68L256.454 165.555C257.299 179.901 256.852 164.549 258.263 158.581C258.632 157.01 264.666 142.795 266.529 139.981C256.216 142.777 249.324 156.838 245.087 166.073C249.544 148.186 264.934 134.393 283.324 133.007C291.59 136.071 276.081 132.436 276.866 135.333C284.96 133.905 287.388 137.69 287.977 137.66C292.346 137.428 285.871 130.204 284.359 129.913C282.895 129.627 281.306 130.799 280.485 130.948L279.967 130.43C286.252 128.015 273.159 127.021 270.665 127.33V126.295C279.378 127.003 285.615 127.253 290.816 135.333C288.192 139.04 289.299 138.707 289.269 141.789H289.257Z" fill="#0A194B"/>
<path d="M245.849 155.225C244.688 157.986 244.022 161.55 243.522 164.525C242.498 161.967 242.641 159.765 241.195 157.29C241.141 156.653 241.695 156.808 241.713 156.772L245.331 155.225H245.849Z" fill="#0060FF"/>
<path d="M255.668 143.342C255.751 143.241 255.585 142.926 255.668 142.825C262.798 135.833 270.659 132.662 280.473 130.942C281.294 130.799 282.883 129.627 284.347 129.907C285.859 130.198 292.328 137.422 287.965 137.654C287.382 137.684 284.948 133.905 276.854 135.327C276.069 132.43 291.584 136.065 283.311 133.001C264.922 134.387 249.532 148.18 245.075 166.067C249.318 156.832 256.204 142.771 266.517 139.975C264.654 142.783 258.62 157.004 258.251 158.575C256.846 164.543 257.287 179.895 256.442 165.549L255.668 170.976H254.633C251.949 166.251 260.233 148.965 255.924 156.249C260.054 142.86 255.251 151.108 254.115 158.057C253.484 161.913 253.758 168.816 253.597 173.04C248.021 172.535 247.045 173.427 243.26 167.358C246.586 153.999 247.753 152.976 255.662 143.331L255.668 143.342Z" fill="#0060FF"/>
<path d="M245.849 155.225H245.331C245.712 153.672 243.807 154.428 243.784 153.934C243.742 153.184 247.842 142.426 250.758 140.76C253.811 146.02 247.747 150.715 245.849 155.225Z" fill="#0060FF"/>
<path d="M267.035 141.789C263.333 150.744 262.262 160.116 261.351 169.69C259.911 162.401 261.518 146.912 267.035 141.789Z" fill="#0060FF"/>
<path d="M260.578 155.743C259.251 162.847 260.917 169.726 260.834 170.47C259.412 183.822 255.454 166.376 260.578 155.743Z" fill="#0060FF"/>
<path d="M255.668 142.824C255.585 142.926 255.751 143.241 255.668 143.342C247.289 150.238 258.935 133.048 263.934 131.977C267.63 133.34 263.083 133.899 255.668 142.824Z" fill="#0060FF"/>
<path d="M241.201 161.425L239.136 156.26C241.808 158.765 241.004 160.658 241.201 161.425Z" fill="#0060FF"/>
<path d="M268.588 140.76C266.315 141.319 268.303 137.642 269.362 138.177C269.963 138.481 268.719 140.73 268.588 140.76Z" fill="#0060FF"/>
<path d="M272.98 136.107C275.575 135.571 273.2 137.654 270.135 137.916C270.725 137.362 272.79 136.148 272.98 136.107Z" fill="#0060FF"/>
<path d="M236.035 141.278C236.095 141.367 235.999 141.891 236.035 142.313C233.958 141.873 227.192 125.48 224.924 122.683C208.796 128.062 214.254 128.306 216.914 135.857C219.199 142.337 222.306 153.821 226.216 158.331C219.967 155.011 217.83 134.03 211.23 129.139C213.557 125.67 206.095 125.033 208.648 120.356C208.273 118.738 196.067 115.233 193.918 113.9C192.21 112.841 187.759 108.991 190.562 108.736C190.324 110.485 191.032 110.217 191.08 110.283C193.847 114.335 204.452 116.388 208.91 119.065L217.949 114.674C217.628 110.211 216.474 107.48 213.04 104.6C209.778 117.994 212.302 109.39 210.457 107.7C209.481 106.808 201.256 108.569 197.281 100.982C196.793 100.048 196.614 99.5186 196.763 98.3999C198.156 99.7625 198.995 106.189 208.392 106.665C215.676 107.034 208.16 98.2392 212.266 99.1734C213.676 105.338 219.033 109.104 219.503 115.703C226.68 119.613 229.858 132.364 236.035 141.278Z" fill="#12101A"/>
<path d="M217.687 115.441C229.34 123.653 222.573 120.053 213.04 127.324C206.19 120.624 208.439 120.047 217.687 115.441Z" fill="#0060FF"/>
<path d="M263.417 119.577C256.448 118.756 239.35 111.538 239.13 110.021C239.011 109.218 241.278 108.86 241.195 106.665H241.713L243.778 104.6C247.319 105.118 260.483 113.49 269.874 113.383C269.814 121.422 269.225 120.267 263.417 119.583V119.577Z" fill="#0060FF"/>
<path d="M245.337 103.558C247.122 102.368 249.61 99.4647 251.794 98.9113C256.043 97.8343 269.296 101.547 270.135 106.403C270.992 111.365 268.558 112.787 264.19 111.829C261.935 111.335 245.783 104.951 245.331 103.564L245.337 103.558Z" fill="#FFFDFA"/>
<path d="M267.035 124.742C266.946 123.373 267.749 123.51 267.035 121.642C266.946 121.41 269.469 120.898 263.417 120.095V119.577C269.231 120.261 269.814 121.416 269.874 113.377C260.483 113.484 247.319 105.112 243.778 104.594C242.695 104.433 242.123 104.487 241.713 105.629H241.195C241.29 105.534 240.695 104.642 243.004 103.565C243.831 103.481 245.135 103.696 245.331 103.565C245.789 104.951 261.941 111.336 264.19 111.83C268.559 112.794 270.993 111.371 270.136 106.403C269.297 101.548 256.043 97.8346 251.794 98.9116C249.604 99.4649 247.122 102.369 245.337 103.559C243.897 99.1853 258.245 97.6739 260.066 95.2938C267.594 94.3239 272.73 106.195 269.624 112.085C273.081 113.472 269.273 122.278 267.041 124.742H267.035Z" fill="#111929"/>
<path d="M241.719 105.624V106.659H241.201C241.183 106.26 241.112 106.088 240.683 106.141C240.874 105.939 241.022 105.802 241.201 105.624H241.719Z" fill="#A39C87"/>
<path d="M267.035 121.642C265.547 121.797 262.06 120.779 263.417 120.095C269.463 120.904 266.946 121.41 267.035 121.642Z" fill="#8CA9D4"/>
<path d="M259.025 96.3233C262.488 95.2285 267.576 97.9358 268.064 101.75C266.333 101.161 254.615 97.7157 259.025 96.3233Z" fill="#0060FF"/>
<path d="M243.784 104.594L241.719 106.659V105.623C242.129 104.481 242.706 104.433 243.784 104.588V104.594Z" fill="#C3DEF9"/>
<path d="M247.402 185.708C247.723 185.012 246.741 182.947 248.176 183.126C251.187 193.806 264.446 194.342 271.945 188.29C276.617 188.023 261.655 197.329 251.794 190.355C250.104 189.159 248.979 186.136 247.402 185.708Z" fill="#042892"/>
<path d="M284.603 214.638C284.698 215.602 284.716 215.65 284.085 216.185C281.026 215.222 277.836 214.168 275.045 212.568C267.422 208.212 250.169 188.546 264.97 210.759C268.285 215.424 284.555 223.611 270.915 217.215C262.036 211.836 257.947 200.019 257.221 199.132L257.739 198.614C268.797 205.57 275.075 205.172 279.443 191.641C281.133 186.41 283.312 157.456 282.544 152.375C281.169 143.289 269.54 139.379 275.051 140.748C275.426 140.843 279.479 143.765 280.479 145.139C287.561 154.904 279.925 169.88 283.062 176.658C284.787 158.747 284.169 183.691 283.062 188.54C282.389 191.474 279.366 194.883 279.443 195.258C279.556 195.776 285.365 197.811 278.67 196.55C272.665 205.177 275.998 201.215 284.615 206.106L274.539 202.75C271.445 205.392 267.267 203.279 267.047 205.076C271.373 209.426 278.229 214.728 284.615 214.632L284.603 214.638Z" fill="#0B1D3C"/>
<path d="M282.282 184.155C282.657 184.215 282.609 186.5 282.538 187C281.776 192.617 278.176 195.984 282.282 184.155Z" fill="#157BFF"/>
<path d="M241.201 106.659C241.284 108.861 239.017 109.212 239.136 110.015C239.356 111.532 256.448 118.75 263.423 119.571V120.089C262.066 120.779 265.553 121.796 267.041 121.636C267.755 123.504 266.952 123.367 267.041 124.736C267.118 125.908 266.029 125.92 267.297 126.801C268.933 127.128 269.862 126.218 270.653 126.283V127.318C265.773 127.931 266.964 133.245 267.297 133.519C267.803 133.929 279.348 130.65 279.955 130.418L280.473 130.936C270.659 132.656 262.798 135.827 255.668 142.819C263.089 133.893 267.63 133.328 263.934 131.971C263.75 131.906 263.363 132.061 263.417 131.454C263.905 131.204 265.678 131.245 265.482 130.163C262.512 129.282 264.601 125.73 261.346 125.515C262.958 120.743 260.554 117.435 256.954 121.124C256.049 120.267 255.829 119.512 254.371 119.577C253.77 119.601 243.748 124.426 253.853 119.059C248.931 116.459 245.301 112.282 241.968 119.059C240.719 118.488 247.592 110.979 241.195 113.894C241.106 109.741 234.434 112.907 240.677 106.147C241.106 106.094 241.177 106.266 241.195 106.665L241.201 106.659Z" fill="#010103"/>
<path d="M196.763 98.394C196.614 99.5127 196.793 100.042 197.281 100.976L196.245 102.012C196.055 100.893 195.728 99.8043 195.728 98.6559L196.763 98.4V98.394Z" fill="#FFD764"/>
<path d="M194.692 103.041C196.68 105.963 198.513 107.95 201.149 110.277C200.899 104.874 197.293 108.277 196.239 102.012L197.275 100.976C201.25 108.563 209.475 106.802 210.451 107.694C212.296 109.384 209.772 117.988 213.034 104.594C216.468 107.474 217.622 110.211 217.943 114.668L208.904 119.059C204.446 116.382 193.841 114.323 191.074 110.277L201.149 112.859C201.726 111.372 197.572 112.324 194.692 109.241C193.543 108.01 191.651 103.339 191.591 101.494C191.574 100.982 191.603 100.459 191.591 99.947C191.663 99.9053 191.318 98.8402 192.109 98.9116C192.133 99.7566 194.311 102.97 194.692 103.047V103.041Z" fill="#FC8D17"/>
<path d="M196.763 98.3937L195.728 98.6496C195.728 99.798 196.055 100.887 196.245 102.006C197.299 108.271 200.905 104.868 201.155 110.271C198.519 107.95 196.686 105.957 194.698 103.035C195.013 103.094 195.62 103.136 195.734 102.779C194.9 99.7564 194.615 96.2814 196.769 98.3878L196.763 98.3937Z" fill="#2E1208"/>
<path d="M193.662 109.241C194.002 109.211 194.353 109.253 194.698 109.241C197.578 112.318 201.732 111.371 201.155 112.859L191.08 110.277C191.032 110.211 190.33 110.473 190.562 108.729C191.568 109.426 192.514 109.342 193.662 109.247V109.241Z" fill="#42251B"/>
<path d="M194.692 103.041C194.311 102.97 192.133 99.7507 192.109 98.9058C193.894 98.9415 194.555 102.839 194.692 103.041Z" fill="#2A0709"/>
<path d="M191.591 101.494L191.074 100.459C191.103 100.441 190.937 100.34 191.591 99.9409C191.603 100.453 191.574 100.976 191.591 101.488V101.494Z" fill="#81290F"/>
<path d="M203.738 108.724L204.773 112.341C202.994 111.972 202.161 109.979 203.738 108.724Z" fill="#6C4519"/>
<path d="M206.321 109.241C206.797 109.265 205.934 111.841 205.803 111.824C205.184 111.752 205.589 109.205 206.321 109.241Z" fill="#934D0F"/>
<path d="M241.201 162.455C242.028 165.608 243.194 168.905 244.819 171.755C242.052 171.416 240.338 174.058 238.618 175.891C237.309 175.885 236.832 176.468 237.582 177.438C237.053 178.068 238.177 180.663 232.673 178.985C230.965 178.461 227.668 174.95 225.954 173.82C223.776 172.386 211.135 167.792 224.145 169.946L216.396 164.52C219.449 165.091 221.853 166.156 223.889 168.655L224.145 167.881L215.36 161.937C215.378 161.574 214.462 160.914 214.843 160.128C215.95 157.849 227.245 166.775 217.943 159.093C218.223 157.052 224.621 160.604 228.019 161.419C232.339 162.449 235.886 160.652 237.32 164.002C238.249 163.728 233.286 154.452 241.195 162.455H241.201Z" fill="#FC8D17"/>
<path d="M239.136 155.743V156.26L241.201 161.425C241.278 161.717 241.123 162.169 241.201 162.461C233.292 154.463 238.255 163.734 237.326 164.008C235.892 160.658 232.345 162.455 228.025 161.425C224.627 160.616 218.229 157.058 217.949 159.099C227.251 166.775 215.956 157.855 214.849 160.134C214.468 160.919 215.384 161.58 215.366 161.943C215.355 162.109 215.361 162.288 215.366 162.461C211.296 160.836 217.069 156.695 218.723 156.778C219.639 156.82 234.232 163.966 235.517 160.396C235.821 159.545 234.958 157.165 236.291 156.778C236.422 156.736 237.297 158.188 237.838 157.813C238.558 157.32 237.19 156.719 239.13 155.749L239.136 155.743Z" fill="#1E0E08"/>
<path d="M216.396 164.525C216.337 164.513 216.581 163.817 215.361 164.008C215.259 163.698 215.39 162.984 215.361 162.461C215.355 162.294 215.349 162.115 215.361 161.943L224.145 167.887L223.889 168.661C221.853 166.168 219.449 165.102 216.396 164.525Z" fill="#6A270A"/>
<path d="M238.618 175.89C238.469 176.051 238.142 176.777 237.582 177.437C236.827 176.467 237.309 175.878 238.618 175.89Z" fill="#8A400D"/>
<path d="M234.744 165.043L237.071 165.817C235.791 166.566 234.214 165.763 234.744 165.043Z" fill="#934D0F"/>
<path d="M226.989 171.755C227.043 171.743 227.626 172.35 227.763 172.529C229.257 174.409 225.406 172.189 226.989 171.755Z" fill="#8A400D"/>
<path d="M243.266 127.324C242.653 128.728 242.076 128.044 242.23 130.942C242.552 136.779 245.17 132.959 247.14 133.524C247.711 133.685 249.306 139.361 256.698 131.715C256.323 118.809 261.602 134.244 252.05 136.624C251.764 136.696 251.348 136.595 251.014 136.624C250.871 136.636 251.169 135.66 248.17 136.624C246.111 132.34 240.826 137.915 240.677 130.68C240.623 128.109 242.671 126.14 242.742 125.771C243.486 126.753 244.593 124.254 243.26 127.318L243.266 127.324Z" fill="#1E0E08"/>
<path d="M242.748 125.777C240.79 123.189 242.397 121.963 240.939 121.13C240.737 121.017 237.446 121.314 237.065 120.356C236.922 119.999 239.814 114.531 241.201 113.9C241.242 115.697 237.612 119.143 238.1 119.845C238.921 121.023 244.176 118.482 242.748 125.789V125.777Z" fill="#42251B"/>
<path d="M263.417 131.459C253.264 136.684 252.484 147.62 252.05 136.624C261.601 134.244 256.323 118.809 256.698 131.715C249.306 139.361 247.705 133.685 247.14 133.524C245.17 132.959 242.552 136.779 242.23 130.942L243.266 127.324C244.599 124.26 243.492 126.759 242.748 125.777C244.17 118.47 238.921 121.017 238.1 119.833C237.612 119.136 241.242 115.685 241.201 113.888C247.598 110.973 240.725 118.482 241.974 119.053C245.313 112.276 248.937 116.453 253.859 119.053C243.754 124.42 253.776 119.595 254.377 119.571C255.835 119.505 256.055 120.261 256.959 121.118C260.56 117.429 262.964 120.737 261.351 125.509C264.601 125.723 262.512 129.276 265.488 130.156C265.684 131.239 263.905 131.198 263.423 131.448L263.417 131.459Z" fill="#FC8D17"/>
<path d="M242.236 130.942C242.076 128.05 242.659 128.728 243.272 127.324L242.236 130.942Z" fill="#FBE0A8"/>
<path d="M249.729 125.777C250.967 125.069 250.878 129.228 249.473 127.068C249.348 126.878 249.39 125.973 249.729 125.777Z" fill="#A75C0A"/>
<path d="M183.325 100.458C182.891 100.702 182.772 100.768 182.29 100.976C180.332 101.821 178.57 102.47 176.344 102.011C175.071 101.75 158.842 90.3072 167.304 97.6201C162.389 95.4185 157.169 97.5666 158.003 103.303C171.928 103.291 169.173 110.901 187.717 102.529C188.193 102.315 187.902 101.529 187.973 101.494C188.122 101.422 188.479 101.809 191.074 100.458L191.591 101.494C191.651 103.344 193.543 108.015 194.692 109.241C194.353 109.253 193.996 109.211 193.656 109.241C190.3 100.94 190.419 105.671 186.682 106.141C184.23 106.45 172.024 107.843 171.179 107.688C170.441 107.557 170.929 105.873 156.967 104.07C156.8 104.046 156.616 104.1 156.449 104.07C157.11 101.75 156.592 97.394 156.967 95.8053C156.991 95.6922 157.431 96.3825 158.003 93.7405C158.241 92.6457 159.014 92.2827 159.038 92.1935C159.062 92.0923 160.038 92.0447 159.556 90.1287C159.342 89.2659 157.253 87.5225 156.455 87.0286C155.985 85.8207 155.087 84.9996 154.39 83.9285C138.721 59.9846 164.37 45.5968 177.386 61.1985C193.853 42.6633 218.312 64.7805 199.346 86.7728C198.31 87.9688 184.248 99.9526 183.325 100.464V100.458Z" fill="#010103"/>
<path d="M190.3 102.523C190.746 102.708 190.669 103.172 190.3 103.559C186.188 107.813 188.449 101.756 190.3 102.523Z" fill="#BDA083"/>
<path d="M205.547 68.946H204.511C203.518 54.6653 184.212 51.9401 177.898 64.2988C163.597 46.9835 143.999 63.0433 154.384 81.8641C141.131 59.5208 165.483 46.9478 177.38 62.7458C184.855 50.756 204.505 54.0346 205.541 68.946H205.547Z" fill="#FFFDFA"/>
<path d="M205.547 68.9458C206.565 83.5894 189.503 94.05 179.195 101.494C179.076 100.857 179.844 99.7683 180.231 99.4291C180.302 99.3696 180.492 99.3874 181.778 98.3937C191.46 90.9321 205.505 83.2027 204.511 68.9458H205.547Z" fill="#EDCCC7"/>
<path d="M85.6656 248.739C87.1831 249.805 86.5166 248.394 86.7011 248.222C88.79 247.799 88.7721 249.709 89.028 249.769C90.1349 250.037 110.631 250.37 111.762 250.287C115.66 250.001 116.802 248.597 113.309 246.151C111.982 252.762 111.589 243.224 107.881 246.151C107.596 246.377 107.584 246.395 107.364 246.669C107.364 246.633 106.792 246.8 106.846 246.151C107.001 245.788 106.9 245.116 107.364 244.604C110.101 245.818 118.641 244.622 115.892 250.804C105.9 250.584 95.8362 251.322 85.9215 250.287C85.4097 250.001 85.7727 249.18 85.6656 248.739Z" fill="#010103"/>
<path d="M88.7662 240.469V241.504C86.5345 242.599 85.7608 245.687 88.7662 246.669V247.704C87.6414 247.692 88.6472 246.431 86.7011 248.222C86.5166 248.394 87.1832 249.805 85.6656 248.739C84.636 244.61 88.177 239.332 88.2484 235.304H88.7662V240.469Z" fill="#010103"/>
<path d="M42.7751 239.439C41.0195 239.915 40.7041 239.106 40.71 236.857L45.8757 238.148C42.6561 238.303 42.9358 239.398 42.7751 239.439Z" fill="#1D4C87"/>
<path d="M97.5503 241.504C97.1694 243.11 98.4251 245.83 100.133 241.504C101.323 242.45 101.109 242.492 101.169 242.539C102.329 249.59 93.2535 248.144 88.7663 246.675C85.7609 245.693 86.5345 242.605 88.7663 241.51C90.4266 240.695 95.5864 240.695 97.5503 241.51V241.504Z" fill="#0060FF"/>
<path d="M95.9969 238.404C94.3841 238.356 91.8727 239.433 90.3134 239.951C89.8611 240.106 89.3315 240.005 88.7661 240.469V235.304L89.8016 234.269C94.2531 235.215 96.7705 234.167 96.0028 238.404H95.9969Z" fill="#FC8D17"/>
<path d="M102.198 243.057C100.175 247.55 102.162 249.138 103.745 246.675C103.692 247.312 104.245 247.157 104.263 247.193C105.299 249.257 106.251 247.562 106.846 246.157C106.792 246.8 107.364 246.639 107.364 246.675C107.376 247.163 105.959 248.103 107.62 248.222C108.494 246.758 107.31 246.735 107.364 246.675C107.584 246.407 107.596 246.383 107.881 246.157L110.726 249.257C103.394 249.531 96.0385 247.776 88.7661 247.71V246.675C93.2533 248.145 102.329 249.591 101.168 242.54C101.282 242.635 102.109 242.968 102.204 243.057H102.198Z" fill="#0A409C"/>
<path d="M103.752 246.669C102.163 249.132 100.181 247.544 102.204 243.051C102.389 243.224 106.049 243.111 103.752 246.669Z" fill="#A4CFF9"/>
<path d="M95.997 238.404C98.0085 238.463 97.4729 238.892 97.5443 238.921C97.6038 240.599 91.5752 241.028 90.3076 239.957C91.8668 239.433 94.3783 238.356 95.991 238.41L95.997 238.404Z" fill="#7FB4E4"/>
<path d="M98.5798 239.957C98.4548 240.635 97.7109 240.826 97.5443 241.504C95.5803 240.689 90.4206 240.689 88.7603 241.504V240.469C89.3316 240.004 89.8553 240.106 90.3076 239.951C91.5752 241.022 97.5978 240.594 97.5443 238.916C98.2882 239.195 97.8002 239.469 98.5798 239.951V239.957Z" fill="#0A194B"/>
<path d="M100.133 241.504C98.425 245.83 97.1693 243.111 97.5502 241.504C97.7108 240.82 98.4607 240.635 98.5857 239.957C99.8592 240.742 100.05 241.439 100.133 241.504Z" fill="#C3DEF9"/>
<path d="M86.1775 87.5404L85.142 93.7406C83.2733 95.9898 80.1251 94.6034 78.9408 100.714C81.5772 100.744 84.7313 102.714 86.6893 103.041C86.8619 108.61 85.7787 113.073 84.6242 118.024C84.4873 118.131 84.285 119.886 82.2973 120.606C75.9176 122.927 68.3774 116.137 67.3121 117.506C64.1877 121.528 77.5661 124.712 80.2322 124.742C88.5818 122.094 92.2715 124.771 97.8002 124.224C98.2049 124.182 100.597 121.951 105.549 122.677L105.805 113.638H104.769C103.805 117.988 101.288 119.238 98.5679 114.93C98.2585 114.442 97.0325 112.746 97.0206 112.603C96.973 112.121 98.4429 103.511 98.5679 103.047C100.782 94.889 104.93 107.188 105.805 99.9468C105.953 100.006 106.174 99.8873 106.322 99.9468C106.995 108.587 105.126 117.619 107.358 126.039C105.763 126.592 105.751 127.068 105.811 128.621L111.494 175.123C108.12 187.273 102.71 225.962 100.127 232.471C99.657 233.661 91.5871 237.404 106.328 244.098L104.263 247.198C104.245 247.169 103.692 247.317 103.745 246.681C106.037 243.122 102.383 243.241 102.198 243.063C102.103 242.974 101.276 242.646 101.163 242.545C101.109 242.498 101.323 242.456 100.127 241.51C100.044 241.444 99.8474 240.742 98.5798 239.963C97.8002 239.481 98.2942 239.207 97.5443 238.927C97.4669 238.898 98.0085 238.475 95.997 238.41C96.7647 234.173 94.2473 235.22 89.7958 234.274C89.4864 234.209 89.0698 234.34 88.7603 234.274C88.7067 234.262 88.9448 233.566 87.7248 233.757C87.1475 216.703 83.7494 198.567 88.2426 181.835C85.5407 171.499 90.7242 161.58 91.8609 151.351C97.4431 144.092 102.764 136.416 92.8964 147.733C93.8367 142.271 97.3955 132.013 92.8964 142.569C92.331 150.34 88.3318 160.396 87.213 166.334C86.112 172.171 87.0702 180.799 85.1479 185.964C74.1977 200.364 62.4559 216.108 47.1672 226.003C46.4471 226.474 45.6854 225.444 45.6199 225.486C43.4596 226.819 43.7155 228.806 42.2634 229.621C41.4184 228.348 41.3172 227.634 41.2279 227.556C44.269 225.825 36.1515 217.631 37.0918 224.456C36.0146 224.016 35.1458 223.433 35.0267 223.421C34.9196 223.409 33.3783 223.844 32.9617 223.939C39.5913 221.124 37.2168 219.024 39.6806 214.9C45.4533 205.231 55.6834 189.231 63.4498 181.835C64.2294 178.842 56.832 129.728 60.8669 120.35C60.617 119.809 56.1595 122.052 55.7013 122.159C47.7445 123.974 45.0843 120.898 45.1081 123.706C44.5606 121.939 43.3525 121.856 41.7516 121.641C41.2815 121.683 41.216 121.124 40.7161 121.124C40.2162 121.124 40.1507 121.683 39.6806 121.641C39.1271 120.255 37.9488 120.868 38.1333 119.833C48.3932 114.483 54.4158 104.136 57.2545 93.2229H57.7723C56.8856 96.8883 56.2607 100.09 54.6717 103.559C52.7316 107.801 49.9703 111.449 46.9232 114.924C44.9355 116.804 42.686 118.434 40.7221 120.35C67.9013 125.093 67.7942 100.464 78.9586 84.1845L73.793 78.7578C77.5185 81.8996 82.1009 84.8628 86.1953 87.5404H86.1775Z" fill="#010103"/>
<path d="M107.364 244.604C106.906 245.116 107.001 245.794 106.846 246.151C106.251 247.555 105.299 249.251 104.263 247.187L106.328 244.086C106.882 244.336 107.304 244.58 107.364 244.604Z" fill="#BBE6FB"/>
<path d="M88.7662 234.275V235.31H88.2485C88.2485 234.929 87.7724 234.882 87.7307 233.763C88.9507 233.573 88.7067 234.269 88.7662 234.281V234.275Z" fill="#7F532A"/>
<path d="M97.8062 183.126C99.4904 182.156 95.4674 192.569 94.9615 195.265C93.0214 205.678 92.5632 221.839 93.4142 232.466C93.4261 232.579 95.4198 234.423 93.6701 233.757C90.7005 232.626 92.1704 193.599 97.8062 183.126Z" fill="#6A6968"/>
<path d="M67.3181 185.19L68.0917 185.446C60.373 196.954 51.7259 207.855 44.5785 219.803C43.168 219.202 49.4644 211.836 49.4882 210.247L67.3181 185.19Z" fill="#6A6968"/>
<path d="M64.2175 146.96L66.0267 153.934C69.6748 201.316 67.2229 177.818 64.2175 146.96Z" fill="#6A6968"/>
<path d="M41.2219 227.557C41.1803 227.515 41.0136 227.729 40.1864 227.039C39.3711 225.248 38.2285 225.557 38.1213 225.492C37.1811 224.933 37.1573 224.486 37.0858 224.457C36.1455 217.632 44.263 225.825 41.2219 227.557Z" fill="#FAA73E"/>
<path d="M64.7352 126.807C66.6396 148.257 60.1289 140.177 60.8609 138.433C61.212 137.594 62.5332 140.498 63.4437 139.469C64.0091 138.832 64.3602 128.883 64.7352 126.813V126.807Z" fill="#A4A5A5"/>
<path d="M79.7204 84.4403C80.0299 84.3569 83.6125 86.1718 83.5947 88.8316C83.5828 90.2656 71.1269 113.091 70.1568 114.15C65.7172 118.988 41.8171 125.973 62.6643 115.959C68.2822 113.127 76.4711 85.2971 79.7145 84.4403H79.7204Z" fill="#0060FF"/>
<path d="M46.9114 114.924C49.9584 111.449 52.7198 107.795 54.6599 103.559C54.4456 108.813 50.1012 111.907 46.9114 114.924Z" fill="#BBE6FB"/>
<path d="M64.2175 143.86C65.0566 143.747 64.6043 147.805 63.9616 145.669C63.8545 145.312 63.8842 143.907 64.2175 143.86Z" fill="#3F454D"/>
<path d="M89.7958 234.274L88.7603 235.31V234.274C89.0697 234.34 89.4804 234.209 89.7958 234.274Z" fill="#FAA73E"/>
<path d="M42.2576 234.274V235.31C38.5142 234.75 38.294 235.815 40.7102 236.345V236.863C40.7102 239.112 41.0197 239.921 42.7753 239.445C42.4361 241.058 44.0667 240.254 44.3226 240.48C44.4298 240.57 42.9419 242.575 45.614 240.998C47.5125 242.117 45.9116 245.258 41.9957 243.581C41.0197 243.164 28.0877 228.348 28.3019 227.307C28.3674 226.985 33.5152 224.224 34.2472 224.462C34.8007 224.647 39.0618 231.109 42.7753 232.471H38.1274L42.2635 234.28L42.2576 234.274Z" fill="#0060FF"/>
<path d="M42.2575 235.304C42.9895 235.411 43.8286 235.233 44.5844 235.304V236.339C43.3942 236.185 41.7279 236.559 40.7102 236.339C38.3 235.81 38.5142 234.745 42.2575 235.304Z" fill="#273E5E"/>
<path d="M37.8655 230.139L38.1214 230.913L37.3477 231.175L37.0918 230.913L37.8655 230.139Z" fill="#12101A"/>
<path d="M42.2576 230.139C42.4004 230.383 42.9062 228.568 44.3226 234.013L42.2576 234.268L38.1215 232.46H42.7694C39.0618 231.097 34.8007 224.635 34.2413 224.451C33.5093 224.213 28.3674 226.967 28.296 227.295C28.0818 228.336 41.0138 243.152 41.9898 243.569C45.8997 245.247 47.5065 242.105 45.6081 240.986C42.9301 242.563 44.4238 240.558 44.3167 240.469C47.2685 239.677 48.6849 242.295 46.3818 244.342C51.7974 244.783 42.7099 247.895 40.9542 247.187C40.377 246.955 33.3069 239.291 32.4261 238.148C30.9086 236.167 24.8205 227.247 26.4809 227.039C28.8435 226.462 30.5872 224.486 32.938 223.939C33.3545 223.844 34.9019 223.409 35.003 223.421C34.7055 225.052 40.8293 231.484 42.2397 230.139H42.2576Z" fill="#111929"/>
<path d="M37.0917 224.457C37.1571 224.486 37.1809 224.933 38.1272 225.492C38.9604 227.313 40.097 226.962 40.1923 227.039C41.0135 227.729 41.1861 227.515 41.2278 227.557C41.3111 227.634 41.4123 228.348 42.2633 229.622C42.3406 229.741 42.1859 230.008 42.2633 230.139C40.8528 231.484 34.729 225.052 35.0266 223.421C35.1456 223.433 36.0145 224.01 37.0917 224.457Z" fill="#52B3F5"/>
<path d="M27.0164 228.074C33.1402 232.828 36.7109 241.117 43.5488 245.639C40.9779 248.835 28.2066 231.162 27.0164 228.074Z" fill="#FFFDFA"/>
<path d="M86.6953 248.222C88.6414 246.431 87.6356 247.692 88.7604 247.704C96.0387 247.77 103.388 249.525 110.72 249.251L107.876 246.151C111.583 243.224 111.97 252.762 113.303 246.151C116.797 248.597 115.648 250.001 111.756 250.287C110.619 250.37 90.1232 250.037 89.0222 249.769C88.7663 249.71 88.7842 247.8 86.6953 248.222Z" fill="#0060FF"/>
<path d="M40.1923 227.039C40.0911 226.955 38.9604 227.307 38.1272 225.492C38.2403 225.557 39.377 225.254 40.1923 227.039Z" fill="#9B4F4B"/>
<path d="M107.364 246.669C107.316 246.728 108.494 246.752 107.62 248.216C105.959 248.097 107.376 247.151 107.364 246.669Z" fill="#52B3F5"/>
<path d="M87.7308 33.2916C88.427 34.8625 89.7482 41.7767 91.8669 43.6272L91.3491 44.1449C82.6067 40.1523 81.7319 38.272 85.1479 29.418C85.7847 29.8583 87.5106 32.7977 87.7308 33.2916Z" fill="#FC8D17"/>
<path d="M182.29 100.976H186.938C187.515 101 188.009 100.816 187.973 101.494C187.902 101.53 188.187 102.315 187.717 102.529C169.173 110.907 171.929 103.291 158.003 103.303C157.17 97.5669 162.389 95.4188 167.305 97.6204C158.842 90.3075 175.071 101.75 176.344 102.012C178.57 102.47 180.332 101.827 182.29 100.976Z" fill="#FC8D17"/>
<path d="M186.944 100.976H182.296C182.772 100.768 182.897 100.702 183.331 100.458C184.545 100.917 185.664 100.929 186.95 100.976H186.944Z" fill="#6A270A"/>
<path d="M162.913 99.9407C171.226 99.7206 179.689 103.808 173.762 103.041C172.607 102.892 168.471 100.833 166.525 100.458C164.478 100.06 162.526 101.595 162.907 99.9407H162.913Z" fill="#5C3109"/>
<path d="M88.2485 32.2622C84.654 28.1922 86.1656 19.1537 84.3743 26.5797C81.2558 25.6693 82.1485 24.5625 81.5296 22.9619C86.237 25.5146 80.3691 22.0456 82.5651 18.5706C83.5292 17.0414 84.1481 17.7554 83.6006 20.3795C83.5887 20.4449 83.1602 20.3497 82.5651 21.153C83.8684 22.0277 83.4816 20.5461 83.6006 20.3795C86.8321 15.7085 80.1965 14.8933 81.5355 22.9619C80.631 20.5937 78.8218 15.3693 83.0829 15.7264C85.9216 15.9644 85.5824 20.677 87.219 19.6C82.0057 9.1632 88.7484 24.9612 91.0932 7.46143C101.68 19.2192 107.471 1.85031 107.37 17.5353C95.8661 16.4106 113.059 20.2486 103.234 20.1177C102.912 21.4505 106.09 21.2661 106.334 21.6647C106.834 22.4978 104.18 38.2125 98.3239 37.9388C97.4312 37.8971 88.7841 32.8632 88.2485 32.2562V32.2622Z" fill="#FC8D17"/>
<path d="M95.8362 18.3509C96.098 18.333 96.3539 18.3211 96.6158 18.2913L96.2111 18.3449C96.7051 18.2854 97.1752 18.3152 97.6096 18.4342C97.6096 17.4226 97.08 17.0418 93.9258 17.3631C93.7413 17.381 90.4444 17.8986 90.8372 18.6424C93.3724 18.1188 95.1042 18.1069 95.8421 18.3449L95.8362 18.3509Z" fill="#010103"/>
<path d="M83.5947 20.3799C84.1481 17.7558 83.5233 17.0477 82.5592 18.571C80.3632 22.0459 86.2311 25.515 81.5237 22.9623C80.1846 14.8937 86.8262 15.7029 83.5887 20.3799H83.5947Z" fill="#12101A"/>
<path d="M97.2883 30.7095L102.716 33.5537C101.115 34.3927 96.4492 32.1732 97.2883 30.7095Z" fill="#1E0E08"/>
<path d="M102.716 30.1975H101.168C101.359 29.8345 100.276 29.4596 100.913 29.1621C103.585 27.9245 102.888 28.8706 102.722 30.1975H102.716Z" fill="#FFAF1D"/>
<path d="M101.169 30.1978H102.716C102.609 31.0308 101.77 31.3581 101.425 31.2331C98.8536 30.2751 101.109 30.3108 101.169 30.1978Z" fill="#1E0E08"/>
<path d="M83.5946 20.3799C83.4756 20.5465 83.8624 22.0281 82.5591 21.1534C83.1483 20.3501 83.5767 20.4394 83.5946 20.3799Z" fill="#763C19"/>
<path d="M103.079 21.2308L104.352 21.4033C104.525 21.4271 104.703 21.445 104.876 21.4866C104.953 21.5045 105.025 21.5223 105.096 21.5521C105.001 21.5104 104.995 21.5104 105.09 21.5521C105.174 21.6057 105.174 21.6057 105.09 21.5521C105.56 21.9865 106.423 21.8437 106.584 21.1594C106.846 20.0348 107.102 18.9102 107.364 17.7856C107.542 17.0001 106.751 16.4349 106.054 16.78C105.132 17.2322 104.287 17.8332 103.531 18.5353L104.936 19.6183C105.043 19.4279 105.156 19.2434 105.281 19.0589C105.34 18.9756 105.394 18.8923 105.453 18.809C105.489 18.7614 105.525 18.7138 105.555 18.6662C105.501 18.7317 105.513 18.7257 105.578 18.6424C105.87 18.2794 105.959 17.732 105.578 17.381C105.251 17.0775 104.632 16.9942 104.317 17.381C104.15 17.5892 103.966 17.7856 103.775 17.97C103.68 18.0593 103.579 18.1485 103.478 18.2378C103.466 18.2497 103.257 18.4044 103.406 18.2973C103.353 18.3389 103.299 18.3747 103.245 18.4163C103.025 18.571 102.799 18.7079 102.561 18.8328C102.442 18.8923 102.323 18.9518 102.204 19.0054C102.115 19.053 102.317 18.9637 102.156 19.0232C102.079 19.053 102.008 19.0827 101.93 19.1065L103.061 19.9693C103.061 20.0169 103.043 20.0586 103.013 20.0943C103.031 20.0526 103.055 20.0169 103.079 19.9812C103.12 19.9098 103.174 19.8384 103.222 19.767C103.275 19.6837 103.335 19.6064 103.394 19.529C103.305 19.648 103.448 19.4695 103.466 19.4457C103.692 19.1779 103.936 18.9221 104.198 18.6841C104.263 18.6246 104.323 18.571 104.388 18.5175C104.412 18.4937 104.632 18.3151 104.501 18.4223C104.751 18.2259 104.977 18.0593 105.061 17.738C105.144 17.4167 105.049 17.0537 104.817 16.7978C104.751 16.7205 104.662 16.661 104.579 16.6015C104.227 16.3516 104.828 16.8038 104.805 17.1429L104.15 18.0057C104.186 17.9998 104.519 17.9462 104.352 17.9641C104.471 17.9522 104.59 17.9462 104.709 17.9522C104.745 17.9522 105.078 17.9938 104.912 17.9641C105.007 17.9819 105.102 17.9998 105.191 18.0355C105.084 17.9879 105.072 17.9879 105.156 18.0355C105.043 17.976 104.971 17.8748 104.942 17.738C104.93 17.6785 104.924 17.619 104.93 17.5595C104.894 17.6487 104.894 17.6606 104.93 17.5833C104.888 17.6904 104.828 17.7915 104.769 17.8927C104.751 17.9224 104.567 18.1842 104.656 18.0652L106.15 18.934C106.227 18.7198 106.06 19.0589 106.185 18.8685C106.197 18.8507 106.304 18.6722 106.239 18.7674C106.179 18.8566 106.31 18.69 106.316 18.6841C106.37 18.6305 106.429 18.5829 106.483 18.5294L104.989 17.6606C104.656 19.0649 104.323 20.4751 103.989 21.8794C103.882 22.3316 104.132 22.8671 104.614 22.9802C105.096 23.0932 105.596 22.8433 105.715 22.3554C106.048 20.9511 106.382 19.5409 106.715 18.1366C106.804 17.7618 106.661 17.3155 106.304 17.131C105.929 16.9347 105.543 17.0061 105.221 17.2679C104.84 17.5833 104.596 17.9998 104.43 18.458C104.299 18.809 104.513 19.291 104.84 19.4636C105.168 19.6361 105.668 19.6361 105.923 19.3267C106.513 18.5948 107.132 17.4702 106.292 16.6788C105.632 16.06 104.495 16.1016 103.674 16.2921C103.275 16.3813 103.037 16.7681 103.019 17.1548C103.001 17.4345 103.132 17.7082 103.329 17.8986C103.4 17.97 103.489 18.0355 103.579 18.089C103.751 18.1902 103.46 17.9581 103.549 18.0712L103.317 17.6785L103.299 17.5119L103.418 17.0596C103.603 16.8871 103.65 16.8395 103.555 16.9168C103.513 16.9466 103.472 16.9823 103.43 17.012C103.353 17.0715 103.281 17.1251 103.21 17.1846C103.103 17.2738 102.995 17.3631 102.888 17.4583C102.668 17.6606 102.466 17.8689 102.269 18.095C101.811 18.6246 101.27 19.2434 101.264 19.9812C101.264 20.5287 101.841 21.0404 102.394 20.844C103.626 20.4096 104.739 19.6718 105.566 18.6603L104.305 17.3988C103.966 17.8213 103.65 18.2616 103.382 18.7317C103.162 19.1184 103.263 19.6123 103.614 19.886C103.966 20.1597 104.459 20.124 104.787 19.8146C104.953 19.6599 105.126 19.5052 105.311 19.3564C105.358 19.3207 105.4 19.285 105.447 19.2493C105.382 19.3029 105.388 19.2969 105.471 19.2315C105.566 19.166 105.656 19.0946 105.751 19.0292C106.132 18.7674 106.531 18.5413 106.947 18.333L105.638 17.3274C105.376 18.452 105.12 19.5766 104.858 20.7012L106.352 20.3085C105.971 19.9574 105.513 19.7908 105.007 19.7194C104.501 19.648 104.043 19.5885 103.555 19.5231C103.067 19.4576 102.573 19.6361 102.454 20.1478C102.359 20.5644 102.585 21.1772 103.079 21.2486V21.2308Z" fill="#FC8D17"/>
<path d="M83.0829 15.209V15.7266C78.8218 15.3696 80.625 20.594 81.5356 22.9622C82.1485 24.5628 81.2558 25.6636 84.3802 26.58C86.1716 19.154 84.6599 28.1925 88.2545 32.2625L87.7367 33.2978C87.5165 32.8039 85.7907 29.8586 85.1539 29.4242C81.7379 38.2782 82.6127 40.1525 91.3551 44.1511C92.7893 44.8057 94.8782 46.7336 96.5207 45.1865C97.217 45.3055 96.6278 46.6205 98.8476 45.7042C100.568 44.9901 101.198 41.8484 102.204 41.5687C100.806 48.2866 95.5031 47.3107 90.3195 45.1865C90.2838 45.1746 90.5278 45.0139 89.8018 44.6688C88.433 44.0262 82.5115 39.385 82.0533 39.504L81.0178 40.0216C81.2916 38.5638 79.9882 39.0636 79.9823 38.9863C79.9109 37.939 83.0293 37.1536 77.9172 37.9509C72.3766 38.8137 65.4792 41.289 62.4143 46.2159C55.3561 57.569 66.7111 69.9575 73.2634 78.7639C67.2764 73.6348 63.9854 67.6964 60.6051 60.681C61.4561 72.0877 60.4325 82.2329 57.7604 93.229H57.2427C66.1397 59.009 46.2032 40.8309 81.2737 36.9156C87.9272 26.3122 82.2556 27.0441 81.5296 25.8064C79.6252 22.5457 77.2685 14.3283 83.0769 15.2149L83.0829 15.209Z" fill="#12101A"/>
<path d="M73.2634 78.7577C73.3645 78.841 73.68 78.6744 73.7811 78.7577L78.9468 84.1844C67.7823 100.464 67.8835 125.093 40.7102 120.35C42.6741 118.434 44.9237 116.81 46.9114 114.924C50.1072 111.907 54.4456 108.813 54.6599 103.558C56.2488 100.089 56.8737 96.8942 57.7604 93.2228C60.4266 82.2267 61.4502 72.0815 60.6051 60.6748C63.9854 67.6902 67.2824 73.6286 73.2634 78.7577Z" fill="#0060FF"/>
<path d="M84.6302 118.024C86.2489 116.792 85.4872 116.125 85.9216 115.959C86.2965 115.816 91.8788 115.721 93.6701 115.441C95.6697 115.132 97.0742 113.192 98.5798 114.924C101.3 119.232 103.817 117.976 104.781 113.632H105.817L105.561 122.671C100.609 121.951 98.2168 124.182 97.8121 124.218C92.2834 124.765 88.5877 122.088 80.2441 124.736C77.5839 124.706 64.1996 121.522 67.324 117.5C68.3893 116.131 75.9295 122.921 82.3092 120.6C84.2969 119.88 84.4933 118.125 84.6361 118.018L84.6302 118.024Z" fill="#0060FF"/>
<path d="M105.817 99.9411C104.942 107.183 100.8 94.8834 98.5799 103.041C95.759 103.279 88.9627 103.422 86.6953 103.041C84.7314 102.714 81.5832 100.75 78.9468 100.715C80.1311 94.6037 83.2793 95.9901 85.1479 93.7409C86.4691 92.1522 86.8738 89.778 87.4749 89.6055L105.817 99.9411Z" fill="#0060FF"/>
<path d="M98.5798 103.041C98.4548 103.511 96.9849 112.115 97.0325 112.597C97.0444 112.734 98.2763 114.43 98.5798 114.924C97.0741 113.192 95.6696 115.126 93.67 115.441C91.8728 115.721 86.2905 115.81 85.9215 115.959C85.4871 116.132 86.2489 116.792 84.6301 118.024C85.7847 113.073 86.8678 108.61 86.6952 103.041C88.9626 103.422 95.7589 103.279 98.5798 103.041Z" fill="#1E2C38"/>
<path d="M128.294 81.3402C118.362 72.5041 118.13 51.1009 108.661 43.1097C107.822 42.4016 103.287 41.3901 101.169 38.2007C107.947 31.7982 106.697 15.0184 111.506 10.8175C109.685 4.39717 107.501 7.02719 107.114 6.94389C106.947 6.90818 107.245 4.73038 106.34 3.58793C101.621 -2.37425 87.3678 -0.482065 83.6066 6.17035L83.0889 15.2088V15.7265C85.9276 15.9645 85.5884 20.6771 87.225 19.6001C82.0117 9.16334 88.7544 24.9613 91.0992 7.46156C101.686 19.2193 107.477 1.85044 107.376 17.5354C107.34 17.5354 107.304 17.5294 107.269 17.5235C107.245 17.9222 107.185 18.3149 107.096 18.6957C107.06 18.8504 106.983 19.3859 106.852 19.493C106.822 19.731 106.799 19.9691 106.751 20.2011C106.745 20.2309 106.733 20.2666 106.727 20.2963C106.703 20.5046 106.662 20.7069 106.596 20.9151C106.519 21.171 106.4 21.3971 106.275 21.6113C106.305 21.6292 106.328 21.647 106.34 21.6708C106.84 22.5039 104.186 38.2186 98.3299 37.9449C97.4373 37.9032 88.7901 32.8693 88.2545 32.2623L87.7368 33.2977C88.4331 34.8686 89.7542 41.7828 91.8729 43.6333C93.1167 44.7163 95.2889 45.3589 96.2649 44.151C96.7053 44.2521 96.4732 45.1744 96.5208 45.1863C97.2171 45.3053 96.6279 46.6204 98.8477 45.704C100.568 44.99 101.198 41.8482 102.204 41.5686C104.775 40.8664 110.328 44.2759 113.053 50.8689C116.57 58.6935 118.808 67.0655 122.355 74.8961C124.134 78.8233 127.414 81.9472 127.521 82.3875H128.038C127.961 81.6794 129.02 81.8163 130.104 81.8698V81.3521C129.586 81.2272 128.866 81.4355 128.294 81.3521V81.3402Z" fill="#010103"/>
<path d="M131.651 81.3404V81.858C131.145 81.8164 130.609 81.8818 130.104 81.858V81.3404C130.55 81.4475 131.169 81.263 131.651 81.3404Z" fill="#7B7883"/>
<path d="M96.5148 45.1805C94.8722 46.7275 92.7834 44.7996 91.3491 44.1451L91.8669 43.6274C93.1107 44.7104 95.2829 45.353 96.2589 44.1451C96.6993 44.2463 96.4672 45.1686 96.5148 45.1805Z" fill="#6C4519"/>
<path d="M89.54 2.29687C89.8435 2.23737 90.3553 4.0165 90.3136 4.10576C88.1117 9.06829 87.0583 2.76099 89.54 2.29687Z" fill="#415369"/>
<path d="M100.389 2.29694C102.888 2.43379 96.7646 4.89721 95.4792 4.62349C95.2709 4.04632 100.115 2.28503 100.389 2.29694Z" fill="#3F454D"/>
<path d="M98.5798 10.0438L97.5443 11.0792C96.9075 10.978 96.0029 10.0319 95.2173 10.0438C90.748 4.75404 96.3005 9.90698 96.7647 10.0438C97.205 10.1688 97.9728 9.94864 98.5738 10.0438H98.5798Z" fill="#D06713"/>
<path d="M97.5503 11.0794L98.5858 10.044C99.0381 10.1154 99.6689 10.0857 100.133 10.044C100.907 9.97859 101.05 9.87743 101.68 9.52637L102.716 9.78223C101.514 11.1627 99.2821 11.3531 97.5503 11.0734V11.0794Z" fill="#FAA73E"/>
<path d="M101.68 9.52647C101.044 9.87754 100.901 9.97869 100.133 10.0441C94.6401 9.24681 100.812 7.66403 101.68 9.52647Z" fill="#D06713"/>
<path d="M103.489 7.97944C103.918 8.02704 105.251 7.79498 105.299 8.2353C105.34 8.61612 102.722 8.74702 103.489 7.97944Z" fill="#675E57"/>
<path d="M99.3595 1.26123L100.133 1.52304L99.3595 2.29658L99.0977 2.03477L99.3595 1.26123Z" fill="#585D6D"/>
<path d="M101.942 5.91455L102.198 6.68809L101.424 6.94395L101.168 6.68809L101.942 5.91455Z" fill="#5B5D62"/>
<path d="M156.973 95.8116C156.598 97.4063 157.116 101.756 156.455 104.077C155.574 103.934 152.736 104.404 152.319 103.821C153.265 97.805 147.969 92.5806 156.967 95.8116H156.973Z" fill="#0060FF"/>
<path d="M104.263 71.0104C102.067 72.7182 102.769 69.8977 101.68 71.0104C100.032 69.2016 98.0263 67.8865 96.5146 65.8456L97.0324 51.3805C100.079 50.72 101.121 47.1617 102.46 44.6626C102.555 47.2391 105.501 46.8821 106.334 48.5362C108.149 52.1421 107.304 68.6482 104.269 71.0104H104.263Z" fill="#010103"/>
<path d="M125.967 82.3757C126.021 82.4352 126.711 82.2805 127.515 82.8934C127.574 84.1489 125.914 87.0586 125.967 87.2847C126.128 88.0225 135.989 88.9032 140.697 90.1289C144.839 91.2 148.778 93.6217 149.225 93.7467C152.885 94.7404 154.712 93.5384 152.325 92.7113C154.73 91.9378 157.235 91.1345 159.562 90.1289C160.044 92.0509 159.068 92.0925 159.044 92.1937C153.878 90.9144 151.647 95.859 158.009 93.7407C157.443 96.3827 157.003 95.6924 156.973 95.8055C147.969 92.5745 153.266 97.7988 152.325 103.815C152.742 104.398 155.581 103.928 156.461 104.07C156.628 104.1 156.806 104.047 156.979 104.07C151.177 106.962 140.917 107.254 133.466 106.653C124.253 105.909 116.136 102.672 107.632 99.4173C106.412 98.9472 106.406 99.9588 106.34 99.935C106.191 99.8755 105.971 99.9945 105.822 99.935L87.4807 89.5993C86.8797 89.7719 86.475 92.1461 85.1538 93.7348L86.1893 87.5346C88.8019 89.2483 91.4561 91.1643 94.4556 92.1818C111.024 102.172 130.609 107.593 150.004 105.618C152.105 104.773 151.504 96.3529 150.004 94.7701C147.469 92.0866 126.872 88.1772 121.843 88.0523L107.893 77.2049C106.031 75.4496 103.382 72.8612 101.692 71.0047C102.781 69.892 102.079 72.7125 104.275 71.0047C108.018 79.3232 106.959 70.3621 110.994 59.8955C108.959 39.8074 112.833 49.1493 112.03 58.8602C111.72 62.5732 107.179 71.9984 107.893 74.8784C115.559 82.1198 122.016 92.039 125.979 82.3698L125.967 82.3757Z" fill="#0B1D3C"/>
<path d="M159.038 92.1936C159.02 92.2829 158.241 92.6458 158.003 93.7407C151.635 95.853 153.867 90.9084 159.038 92.1936Z" fill="#2D99FF"/>
<path d="M121.837 88.0583C115.725 86.9813 112.089 81.1738 107.887 77.2109L121.837 88.0583Z" fill="#BBE6FB"/>
<path d="M126.229 83.4111L125.194 87.5466C124.527 87.4395 124.914 84.2977 126.229 83.4111Z" fill="#157BFF"/>
<path d="M93.9319 51.3745C92.206 62.4301 93.6938 62.0315 96.5147 65.8396C88.0283 60.0084 82.7495 51.9219 78.429 42.8477C79.1907 39.9024 82.3865 41.8838 81.0118 40.0035L82.0473 39.4858C83.0471 43.9545 89.4149 50.8033 93.9319 51.3686V51.3745Z" fill="#010103"/>
<path d="M41.7397 121.642C43.3406 121.862 44.5487 121.939 45.0962 123.706C45.0724 120.898 47.7267 123.974 55.6894 122.159C53.2137 129.698 52.3448 131.989 44.0607 131.46C42.686 130.811 40.4483 123.611 39.6687 121.642C40.1388 121.683 40.2043 121.124 40.7042 121.124C40.9125 123.296 41.6386 121.63 41.7397 121.642Z" fill="#1D4C87"/>
<path d="M41.7396 121.642C41.6384 121.63 40.9124 123.296 40.7041 121.124C41.204 121.124 41.2695 121.683 41.7396 121.642Z" fill="#52B3F5"/>
<path d="M42.5192 123.195C44.1737 123.135 42.6739 125.753 42.5192 125.777C41.9538 125.872 41.817 123.219 42.5192 123.195Z" fill="#1F66AF"/>
<path d="M97.0326 51.3745L96.5148 65.8396C93.6939 62.0315 92.2061 62.4301 93.932 51.3745C94.6283 51.4638 96.4672 51.4935 97.0326 51.3745Z" fill="#3C75A2"/>
<path d="M89.7957 44.6626C89.5696 48.3518 90.4622 48.9349 90.3135 45.1803C95.497 47.3105 100.8 48.2804 102.198 41.5625C104.769 40.8604 110.321 44.2699 113.047 50.8628C116.344 58.8362 119.933 76.0444 125.967 82.3814C122.004 92.0506 115.547 82.1315 107.881 74.89C107.167 72.0161 111.708 62.5908 112.018 58.8719C112.827 49.1551 108.953 39.8131 110.982 59.9072C106.953 70.3738 108.012 79.3289 104.263 71.0164C107.304 68.6541 108.143 52.1481 106.328 48.5422C105.495 46.888 102.549 47.245 102.454 44.6686C101.115 47.1677 100.079 50.7259 97.0264 51.3864C96.467 51.5054 94.6221 51.4757 93.9258 51.3864C89.4089 50.8211 83.0411 43.9724 82.0413 39.5037C82.5055 39.3847 88.4269 44.0259 89.7898 44.6686L89.7957 44.6626Z" fill="#0060FF"/>
<path d="M127.521 82.3756C127.556 82.5303 127.515 82.7266 127.521 82.8932C126.711 82.2804 126.027 82.4351 125.973 82.3756C119.939 76.0385 116.35 58.8363 113.053 50.8569C116.57 58.6816 118.808 67.0536 122.355 74.8842C124.134 78.8114 127.414 81.9353 127.521 82.3756Z" fill="#0060FF"/>
<path d="M90.3135 45.1803C90.4622 48.9349 89.5696 48.3518 89.7957 44.6626C90.5218 45.0018 90.2778 45.1624 90.3135 45.1803Z" fill="#0060FF"/>
<path d="M95.2234 47.7627C95.753 47.9293 95.6637 49.6847 94.7056 49.3098C93.92 49.0063 95.0448 47.7032 95.2234 47.7627Z" fill="#0060FF"/>
<path d="M92.6405 47.2454C93.0928 47.4656 93.2654 48.8282 92.1228 48.7925C91.7359 48.7806 92.5632 47.2038 92.6405 47.2454Z" fill="#0060FF"/>
<path d="M97.2883 48.7925L98.0679 49.0543L97.8061 49.8278L97.5502 49.572L97.2883 48.7925Z" fill="#0060FF"/>
<path d="M130.103 81.858C130.615 81.8818 131.145 81.8164 131.651 81.858C135.43 82.1853 139.245 82.4768 143.018 82.8933C149.522 83.6074 154.563 85.5293 153.867 83.9287H154.384C155.087 84.9998 155.979 85.8209 156.449 87.0288C149.237 82.5839 136.144 84.1132 128.026 82.3816C127.949 81.6735 129.008 81.8104 130.092 81.864L130.103 81.858Z" fill="#0060FF"/>
<path d="M156.455 87.0286C157.253 87.5225 159.342 89.2659 159.556 90.1287C157.229 91.1343 154.73 91.9376 152.319 92.7111C151.29 93.0443 150.088 93.0979 149.219 93.7465C148.772 93.6275 144.833 91.2057 140.691 90.1287C135.983 88.9089 126.122 88.0223 125.961 87.2845C125.914 87.0584 127.574 84.1487 127.509 82.8932C127.503 82.7266 127.544 82.5302 127.509 82.3755H128.027C136.144 84.107 149.231 82.5778 156.45 87.0227L156.455 87.0286Z" fill="#0060FF"/>
<path d="M149.225 93.7409C150.093 93.0923 151.29 93.0388 152.325 92.7056C154.712 93.5267 152.885 94.7346 149.225 93.7409Z" fill="#0060FF"/>
<path d="M127.777 85.4756C128.306 85.6422 128.217 87.3976 127.259 87.0227C126.473 86.7192 127.598 85.4161 127.777 85.4756Z" fill="#0060FF"/>
<path d="M94.4497 92.1935C91.4502 91.176 88.796 89.2541 86.1834 87.5464C82.0949 84.8687 77.5065 81.9055 73.7811 78.7638C73.6799 78.6805 73.3645 78.8471 73.2633 78.7638C66.711 69.9573 55.3561 57.5689 62.4142 46.2157L69.1332 43.8892C51.6187 50.2738 67.8834 71.6056 76.6258 79.2814C77.7505 80.2632 93.1225 91.3962 94.4556 92.1995L94.4497 92.1935Z" fill="#FFFDFA"/>
<path d="M79.9823 38.9802C79.9823 39.0516 81.2916 38.5518 81.0178 40.0155C82.3926 41.8958 79.1967 39.9144 78.435 42.8598C82.7556 51.9339 88.0343 60.0204 96.5207 65.8516C98.0323 67.8926 100.044 69.2076 101.686 71.0165C103.377 72.873 106.025 75.4613 107.888 77.2167C112.089 81.1796 115.725 86.993 121.837 88.064C126.866 88.183 147.463 92.0924 149.998 94.7819C151.498 96.3706 152.099 104.784 149.998 105.629C130.603 107.605 111.018 102.184 94.4497 92.1935C93.1226 91.3902 77.7446 80.2632 76.6199 79.2755C67.8775 71.6056 51.6128 50.2679 69.1273 43.8832L62.4084 46.2098C65.4732 41.2829 72.3707 38.8076 77.9113 37.9448L73.5193 42.0803L79.9764 38.9802H79.9823Z" fill="#0060FF"/>
<path d="M79.9822 38.9801L73.5251 42.0802L77.9171 37.9448C83.0292 37.1475 79.9168 37.9329 79.9822 38.9801Z" fill="#A4CFF9"/>
<path d="M86.9569 64.8106C100.46 87.6776 96.6455 91.0276 124.938 98.6499C119.385 100.001 104.692 91.4084 103.495 91.1585C102.019 90.855 103.733 93.4493 102.46 92.7056C101.073 91.8963 85.4215 65.2807 86.9569 64.8047V64.8106Z" fill="#1D4C87"/>
<path d="M94.8126 20.9389C95.3056 20.9389 95.7053 20.5393 95.7053 20.0464C95.7053 19.5534 95.3056 19.1538 94.8126 19.1538C94.3196 19.1538 93.9199 19.5534 93.9199 20.0464C93.9199 20.5393 94.3196 20.9389 94.8126 20.9389Z" fill="#010103"/>
<path d="M105.525 20.9389C106.018 20.9389 106.417 20.5393 106.417 20.0464C106.417 19.5534 106.018 19.1538 105.525 19.1538C105.032 19.1538 104.632 19.5534 104.632 20.0464C104.632 20.5393 105.032 20.9389 105.525 20.9389Z" fill="#010103"/>
<path d="M104.347 18.0232C104.18 18.0054 104.007 17.9935 103.841 17.9637L104.103 18.0173C103.781 17.9578 103.478 17.9875 103.198 18.1065C103.198 17.095 103.537 16.7142 105.584 17.0355C105.703 17.0533 107.84 17.571 107.584 18.3148C105.942 17.7912 104.823 17.7793 104.341 18.0173L104.347 18.0232Z" fill="#010103"/>
</g>
<defs>
<clipPath id="clip0_373_2160">
<rect width="305" height="253" fill="white" transform="translate(0.48584)"/>
</clipPath>
</defs>
</svg>
