<svg width="41" height="41" viewBox="0 0 41 41" fill="none" xmlns="http://www.w3.org/2000/svg">
<g clip-path="url(#clip0_381_2442)">
<path d="M37.5249 0.712891H3.43896C1.80615 0.712891 0.48584 2.00195 0.48584 3.5957V37.8223C0.48584 39.416 1.80615 40.7129 3.43896 40.7129H37.5249C39.1577 40.7129 40.4858 39.416 40.4858 37.8301V3.5957C40.4858 2.00195 39.1577 0.712891 37.5249 0.712891ZM12.353 34.7988H6.41553V15.7051H12.353V34.7988ZM9.38428 13.1035C7.47803 13.1035 5.93896 11.5645 5.93896 9.66601C5.93896 7.76758 7.47803 6.22852 9.38428 6.22852C11.2827 6.22852 12.8218 7.76758 12.8218 9.66601C12.8218 11.5566 11.2827 13.1035 9.38428 13.1035ZM34.5718 34.7988H28.6421V25.5176C28.6421 23.3066 28.603 20.4551 25.5562 20.4551C22.4702 20.4551 22.0015 22.8691 22.0015 25.3613V34.7988H16.0796V15.7051H21.7671V18.3145H21.8452C22.6343 16.8145 24.5718 15.2285 27.4546 15.2285C33.4624 15.2285 34.5718 19.1816 34.5718 24.3223V34.7988Z" fill="#FFFDFA"/>
</g>
<defs>
<clipPath id="clip0_381_2442">
<rect width="40" height="40" fill="white" transform="translate(0.48584 0.712891)"/>
</clipPath>
</defs>
</svg>
