<svg width="27" height="26" viewBox="0 0 27 26" fill="none" xmlns="http://www.w3.org/2000/svg">
<path d="M18.2621 10.0985C20.2518 10.4932 22.2384 11.0373 23.5663 12.4357C23.8032 12.6852 24.135 13.0519 24.2951 13.3315C24.457 13.6141 23.0046 14.2019 22.7338 14.321C21.0784 15.0489 19.0977 15.8008 17.1999 16.1334C16.5519 16.247 15.9591 16.5517 15.3349 16.6611" stroke="#FFFDFA" stroke-width="2.90577" stroke-linecap="round" stroke-dasharray="10.46 20.92 31.38 41.84"/>
<path d="M15.3348 16.6613C15.17 17.4377 15.0508 18.1918 15.0113 18.9877C14.9522 20.1771 14.556 21.3612 14.3091 22.524C14.2216 22.9365 14.134 23.3491 14.0464 23.7616C13.9918 24.0186 13.9857 24.0655 13.6915 23.8849C12.0861 22.8992 10.2676 22.125 8.718 21.051C8.12779 20.642 7.60228 20.1525 7.00556 19.7711" stroke="#FFFDFA" stroke-width="2.90577" stroke-linecap="round" stroke-dasharray="10.46 20.92 31.38 41.84"/>
<path d="M7.11071 19.7919C5.93143 19.5579 4.80161 19.9876 3.59163 19.8544C3.49311 19.8436 2.86363 19.8243 2.85291 19.7504C2.82171 19.5355 2.94873 19.2704 2.99337 19.0601C3.36534 17.3082 4.14346 15.7619 4.85983 14.1107C5.22364 13.2722 5.70716 12.4306 6.38583 11.7394C6.65642 11.4638 7.06614 11.2083 7.24788 10.8899" stroke="#FFFDFA" stroke-width="2.90577" stroke-linecap="round" stroke-dasharray="10.46 20.92 31.38 41.84"/>
<path d="M7.24793 10.89C7.40594 10.1458 6.27132 9.12232 5.79467 8.5041C5.08103 7.57851 4.4412 6.6873 4.06015 5.66552C4.01695 5.54966 3.79998 5.02536 4.0179 5.06186C4.46275 5.13635 4.82875 5.39279 5.26815 5.47996C6.58226 5.74065 7.89637 6.00135 9.21047 6.26204C9.8819 6.39523 11.9198 6.62944 11.2484 6.49624" stroke="#FFFDFA" stroke-width="2.90577" stroke-linecap="round" stroke-dasharray="10.46 20.92 31.38 41.84"/>
<path d="M11.2483 6.49632C11.4173 5.70001 11.9362 5.04872 12.6535 4.4932C13.1068 4.1421 13.3272 3.69252 13.835 3.37168C14.3667 3.03575 15.0534 2.92704 15.6587 2.6941C15.7463 2.66042 16.763 2.09681 16.7205 2.3945C16.6325 3.01217 16.5567 3.49085 16.6798 4.13445C16.9995 5.80668 17.6577 7.4729 17.8919 9.14658C17.9574 9.61421 18.02 10.2059 17.9227 10.6645C17.8771 10.8791 18.0484 11.1043 18.002 11.3228" stroke="#FFFDFA" stroke-width="2.90577" stroke-linecap="round" stroke-dasharray="10.46 20.92 31.38 41.84"/>
</svg>
