<svg width="121" height="128" viewBox="0 0 121 128" fill="none" xmlns="http://www.w3.org/2000/svg">
<path d="M65.3004 5.9469C52.2109 5.9469 32.122 2.27455 22.0552 13.8454C12.8203 24.4599 8.32672 35.7184 2.92065 49.3886C0.688339 55.0334 2.38749 64.8035 2.38749 70.9052C2.38749 80.886 4.40615 86.0102 9.25933 94.124C20.1388 112.313 35.035 118.339 53.0969 124.152C72.4569 130.383 97.0917 124.193 113.522 111.351C118.48 107.476 118.616 95.4289 118.616 89.2215C118.616 79.9178 116.242 74.7375 111.389 67.2283C105.892 58.7231 103.169 48.29 96.2237 40.8773C93.1912 37.6407 90.5 33.9892 87.4561 30.7318C83.7388 26.7538 78.3512 25.5471 74.6603 21.6077C70.579 17.2517 64.2502 12.0853 59.4356 9.01097C55.9422 6.78022 47.8902 6.37002 46.1066 2.27002" stroke="#FD9215" stroke-width="2.80435" stroke-linecap="round"/>
</svg>
