<svg width="368" height="408" viewBox="0 0 368 408" fill="none" xmlns="http://www.w3.org/2000/svg">
<path d="M233.438 3.78311C233.438 3.78311 224.813 24.3017 224.01 35.2085C223.743 38.8374 223.189 43.2689 225.581 46.0109C227.433 48.1338 231.7 46.3692 233.702 48.3513C236.349 50.9721 237.815 55.4464 236.903 59.0579C235.629 64.1026 227.595 65.1883 225.865 70.0956C223.59 76.5526 228.073 90.5154 228.073 90.5154L238.89 103.761L251.583 78.2635L266.153 83.3409L267.919 79.1466L260.082 74.9522L264.718 58.9475L290.105 74.6211C290.105 74.6211 295.699 65.8754 299.929 63.1418C303.341 60.9363 307.609 60.3179 311.629 59.7201C315.013 59.2168 318.602 58.6754 321.894 59.6098C327.589 61.2263 336.905 69.1022 336.905 69.1022L293.637 103.981L258.316 90.9569L255.557 96.2551L262.18 99.2352L264.277 96.1447L289.995 105.416L279.95 113.805L252.246 103.761L250.921 107.072L265.822 113.364L269.906 118.882L256.219 114.136L254.895 116.785L264.829 121.531L264.718 125.284L256.992 123.629L244.519 126.609L244.961 129.148L260.413 128.265L256.55 133.783L250.148 137.095L250.038 141.399L252.466 143.055L249.265 160.936L256.881 161.267L258.978 136.212L261.848 134.115C261.848 134.115 265.698 156.381 260.634 165.572C259.945 166.824 257.554 166.645 257.102 168C255.899 171.61 260.825 175.014 260.745 178.817C260.506 190.089 248.603 210.385 248.603 210.385L249.707 212.372L252.797 207.516L253.239 210.385C253.239 210.385 250.864 216.431 248.934 218.995C245.175 223.987 239.677 227.394 235.137 231.688C227.084 239.304 219.389 247.294 211.295 254.867C204.39 261.329 190.213 273.852 190.213 273.852L192.973 274.956C192.973 274.956 191.355 285.844 189.441 290.961C186.988 297.514 179.396 309.394 179.396 309.394L162.509 303.875L161.626 305.972L177.63 315.023L168.469 329.262L155.113 321.646L156.879 319.659L152.685 316.679L148.16 320.873L152.464 332.242L157.542 327.165L168.359 333.677L170.787 332.573L171.118 333.787L159.418 349.24L160.632 354.207L159.97 355.532L153.237 348.468L144.407 345.267L144.517 353.766L149.484 354.538L154.451 359.726L141.647 370.653L137.453 374.296L132.486 378.821L129.285 382.574L124.318 384.451L124.649 370.874L120.565 369.218L127.298 369.439L126.194 366.349L118.91 368.004C118.91 368.004 109.428 364.235 104.56 364.803C96.1106 365.79 89.9763 377.45 81.602 375.951C79.1429 375.511 78.8191 369.867 76.4142 370.543C68.0008 372.909 74.9818 388.485 70.785 396.151C69.9105 397.748 67.6187 398.331 66.9218 400.014C66.4853 401.068 66.9218 403.435 66.9218 403.435" stroke="#006AFA" stroke-width="7.23501" stroke-miterlimit="2.8" stroke-linecap="round" stroke-linejoin="round"/>
<path d="M363.828 355.212C363.828 355.212 353.99 339.789 354.155 331.144C354.192 329.168 356.487 327.706 356.573 325.732C356.717 322.445 353.349 316.404 353.349 316.404C353.349 316.404 360.299 308.739 359.682 304.197C358.688 296.876 348.443 294.267 344.596 287.96C340.772 281.688 337.111 267.231 337.111 267.231C337.111 267.231 332.859 272.481 332.735 275.638C332.562 280.055 336.837 283.558 337.917 287.844C338.426 289.863 337.126 292.493 338.493 294.063C339.71 295.46 342.375 294.286 343.906 295.33C346.642 297.195 348.302 300.438 349.548 303.506C350.413 305.634 350.7 310.3 350.7 310.3L344.251 316.864L342.178 317.901C342.178 317.901 329.84 294.08 328.705 281.05C328.515 278.875 330.042 276.777 329.856 274.601C329.088 265.612 320.644 249.151 320.644 249.151L324.213 248.806L328.935 248.921L333.426 256.982L332.62 262.97L341.833 261.473C341.833 261.473 347.85 251.818 349.203 246.388C349.751 244.189 348.587 241.695 349.433 239.593C350.377 237.248 354.146 236.453 354.5 233.95C355.218 228.885 347.821 220.131 347.821 220.131L340.22 220.592L337.342 228.768L333.311 227.386L328.014 230.611L324.213 231.071L328.129 224.392V219.671L336.881 213.107L329.511 199.057L312.352 210.343L308.437 216.792L319.607 238.096L324.329 243.509L319.262 247.539L301.412 214.719L301.182 212.761L307.631 203.779L330.202 189.96L323.983 180.402L315.922 185.354L313.619 182.59L296.115 192.033L294.157 191.227L288.169 191.342L287.593 186.851L298.303 186.275L299.109 181.899L306.134 181.208L310.395 171.995L319.953 166.007L316.843 155.182C316.843 155.182 305.034 153.567 299.109 153.8C292.469 154.062 279.417 156.91 279.417 156.91L284.138 160.249V162.437L279.878 161.286L275.502 156.91L275.041 163.243H277.459L277.114 166.813L274.58 166.698L274.12 172.11L272.968 178.559L279.071 180.056L278.841 190.075L276.768 189.96L275.386 183.166L270.55 185.354L270.435 191.342L270.665 198.597L268.592 201.936L277.805 203.433L278.496 211.725L275.156 222.895L272.277 222.319L275.386 206.543L262.258 203.203L254.082 220.016L251.664 224.277L240.724 233.144C240.724 233.144 227.633 243.769 221.953 249.957C213.186 259.511 204.888 269.723 198.576 281.05C194.464 288.429 192.526 296.825 189.363 304.658C183.244 319.816 177.713 336.97 170.477 349.915C169.571 351.536 166.344 350.195 165.18 351.642C164.696 352.243 165.27 353.243 164.95 353.945C162.141 360.095 155.816 363.924 151.016 368.686C144.614 375.036 136.999 380.198 131.208 387.111C127.072 392.049 120.729 403.348 120.729 403.348" stroke="#006AFA" stroke-width="7.23501" stroke-miterlimit="2.8" stroke-linecap="round" stroke-linejoin="round"/>
<path fill-rule="evenodd" clip-rule="evenodd" d="M223.337 253.347C223.594 252.103 225.402 251.675 226.657 251.476C227.366 251.363 228.221 251.435 228.77 251.898C229.972 252.913 228.929 255.944 230.46 256.305C232.026 256.674 232.461 253.44 234.021 253.045C234.906 252.821 235.921 253.198 236.677 253.709C237.728 254.419 237.644 256.835 238.911 256.788C240.518 256.728 240.113 253.582 241.446 252.683C242.14 252.215 243.11 252.055 243.921 252.26C245.061 252.548 245.528 254.325 246.698 254.433C248.392 254.59 250.069 253.327 251.225 252.079C252.236 250.988 252.129 249.197 252.976 247.974C254.021 246.465 255.367 245.084 256.96 244.171C258.358 243.37 260.015 242.604 261.608 242.843C262.557 242.986 263.114 244.723 264.023 244.413C265.293 243.979 264.367 241.523 265.351 240.61C266.435 239.604 268.17 239.656 269.637 239.463C270.654 239.329 271.974 240.172 272.715 239.463C274.039 238.196 271.983 235.523 272.957 233.97C274.038 232.246 277.394 232.879 278.329 231.072C279.093 229.596 277.615 227.781 277.725 226.122C277.795 225.085 277.838 223.897 278.51 223.104C279.279 222.197 281.239 222.719 281.77 221.655C282.609 219.974 280.015 217.977 280.502 216.162C280.938 214.54 283.688 214.14 283.943 212.48C284.34 209.9 280.033 207.973 280.563 205.417C280.893 203.825 282.735 201.614 284.245 202.218C287.604 203.561 285.497 209.412 285.271 213.023C284.902 218.928 283.952 225.006 281.408 230.348C279.609 234.124 276.602 237.253 273.621 240.187C270.532 243.228 267.355 246.568 263.298 248.095C262.732 248.308 262.06 248.021 261.487 248.216C258.645 249.184 256.659 251.827 254.002 253.226C249.536 255.579 244.958 258.315 239.937 258.84C235.124 259.344 229.766 258.879 225.631 256.365C224.551 255.709 223.081 254.584 223.337 253.347Z" stroke="#006AFA" stroke-width="7.23501" stroke-miterlimit="2.8" stroke-linecap="round" stroke-linejoin="round"/>
<path fill-rule="evenodd" clip-rule="evenodd" d="M216.742 156.982L218.082 160.525C218.082 160.525 214.694 164.446 213.199 166.557C211.792 168.545 210.945 170.922 209.37 172.781C207.892 174.523 204.199 177.281 204.199 177.281L200.944 173.547C200.944 173.547 204.451 167.254 206.88 164.642C209.715 161.594 216.742 156.982 216.742 156.982Z" stroke="#006AFA" stroke-width="7.23501" stroke-miterlimit="2.8" stroke-linecap="round" stroke-linejoin="round"/>
<path d="M199.124 174.695L187.348 191.451L191.656 194.036L203.146 179.961L199.603 174.312" stroke="#006AFA" stroke-width="7.23501" stroke-miterlimit="2.8" stroke-linecap="round" stroke-linejoin="round"/>
<path fill-rule="evenodd" clip-rule="evenodd" d="M186.39 193.558L176.72 208.111L181.507 210.217L189.837 195.76L186.39 193.558Z" stroke="#006AFA" stroke-width="7.23501" stroke-miterlimit="2.8" stroke-linecap="round" stroke-linejoin="round"/>
<path fill-rule="evenodd" clip-rule="evenodd" d="M176.337 210.983L172.698 237.122L175.284 235.303L178.635 231.76L181.603 212.611L176.337 210.983Z" stroke="#006AFA" stroke-width="7.23501" stroke-miterlimit="2.8" stroke-linecap="round" stroke-linejoin="round"/>
<path fill-rule="evenodd" clip-rule="evenodd" d="M10.5965 212.999C8.59462 212.359 5.32667 212.411 4.42954 214.311C2.80956 217.743 8.5502 220.791 9.678 224.415C10.9355 228.455 9.44361 233.186 11.2525 237.011C12.2577 239.136 13.9148 241.279 16.1074 242.128C20.0332 243.648 24.811 242.813 28.7036 241.21C30.195 240.595 31.5462 239.443 32.3776 238.06C34.6418 234.296 38.5627 228.103 35.2642 225.202C32.5735 222.835 28.6419 229.727 25.1609 228.876C18.1848 227.17 17.4371 215.186 10.5965 212.999Z" stroke="#006AFA" stroke-width="7.23501" stroke-miterlimit="2.8" stroke-linecap="round" stroke-linejoin="round"/>
<path fill-rule="evenodd" clip-rule="evenodd" d="M97.6815 66.8248C92.5458 67.8059 94.3807 77.2426 90.54 80.7904C88.3101 82.8502 85.0706 83.5323 82.1289 84.2818C77.7472 85.3981 72.7496 87.5945 68.6394 85.7101C67.1187 85.0129 67.3928 81.1296 65.7828 81.5839C63.0293 82.3608 67.0851 87.9126 65.3067 90.1537C63.9019 91.9239 61.0096 91.584 58.8 92.0581C55.0402 92.8648 49.6788 90.5673 47.3736 93.6451C45.6424 95.9564 50.275 99.8324 48.6432 102.215C47.0188 104.587 42.3164 102.14 40.2321 104.119C37.682 106.541 34.5955 112.122 37.3755 114.276C40.9541 117.049 45.3113 109.901 49.1193 107.452C53.4278 104.681 56.7193 97.1993 61.6566 98.5648C63.0492 98.9499 61.9579 102.497 63.4023 102.532C64.7031 102.564 64.5364 100.189 65.148 99.0409C66.6624 96.1973 67.2298 92.419 69.909 90.6298C72.0807 89.1795 75.2405 90.5957 77.6853 89.6776C80.8582 88.486 82.7767 84.6477 86.0964 83.9644C89.1043 83.3452 92.0784 85.918 95.1423 85.7101C102.72 85.1959 117.542 85.9606 116.726 78.4099C116.416 75.5524 111.026 77.6166 108.156 77.4577C106.36 77.3582 103.84 78.8959 102.76 77.4577C101.735 76.0922 104.666 74.1773 104.188 72.538C103.38 69.7671 100.517 66.2831 97.6815 66.8248Z" stroke="#006AFA" stroke-width="7.23501" stroke-miterlimit="2.8" stroke-linecap="round" stroke-linejoin="round"/>
</svg>
