<svg width="22" height="21" viewBox="0 0 22 21" fill="none" xmlns="http://www.w3.org/2000/svg">
<path d="M10.9039 6.00349C11.5233 5.15023 11.9467 4.08837 12.6649 3.32995C12.92 3.0605 13.0697 2.95752 13.4172 2.94249C14.0258 2.91616 14.6063 2.75037 15.2189 2.75849C15.8001 2.76618 16.3335 2.88876 16.8425 3.23735C17.9182 3.97408 18.7588 5.86298 18.8831 7.28381C18.9424 7.96199 18.8298 8.59584 18.7605 9.26178C18.6777 10.058 18.2703 10.403 18.0103 11.0715C17.5456 12.2663 16.7132 13.1724 16.0428 14.1893C15.618 14.8337 15.0862 15.3605 14.6531 16.0072C14.1648 16.7364 13.4819 17.2517 13.0083 18.0042C12.608 18.6403 12.0744 19.2165 11.5725 19.7465" stroke="black" stroke-width="2" stroke-linecap="round"/>
<path d="M10.3349 6.19728C9.58898 5.50484 9.00156 4.56203 8.17411 3.98568C7.88013 3.78091 7.71664 3.71482 7.3733 3.78116C6.7721 3.89734 6.17583 3.87016 5.57623 4.02106C5.00739 4.16422 4.50403 4.40892 4.06127 4.86962C3.12552 5.84328 2.60723 7.89224 2.71563 9.31495C2.76738 9.99403 2.98063 10.5895 3.15654 11.2265C3.36687 11.9882 3.82236 12.2316 4.18582 12.8267C4.83538 13.8902 5.79872 14.5848 6.62117 15.4258C7.1424 15.9588 7.74939 16.3515 8.27907 16.8848C8.87624 17.4861 9.6297 17.8322 10.2162 18.4598C10.712 18.9903 11.3289 19.4311 11.9071 19.8338" stroke="black" stroke-width="2" stroke-linecap="round"/>
</svg>
