<svg width="41" height="41" viewBox="0 0 41 41" fill="none" xmlns="http://www.w3.org/2000/svg">
<g clip-path="url(#clip0_381_2440)">
<path d="M20.4858 4.31445C25.8296 4.31445 26.4624 4.33789 28.564 4.43164C30.5171 4.51758 31.5718 4.8457 32.2749 5.11914C33.2046 5.47852 33.8765 5.91602 34.5718 6.61133C35.2749 7.31445 35.7046 7.97852 36.064 8.9082C36.3374 9.61133 36.6655 10.6738 36.7515 12.6191C36.8452 14.7285 36.8687 15.3613 36.8687 20.6973C36.8687 26.041 36.8452 26.6738 36.7515 28.7754C36.6655 30.7285 36.3374 31.7832 36.064 32.4863C35.7046 33.416 35.2671 34.0879 34.5718 34.7832C33.8687 35.4863 33.2046 35.916 32.2749 36.2754C31.5718 36.5488 30.5093 36.877 28.564 36.9629C26.4546 37.0566 25.8218 37.0801 20.4858 37.0801C15.1421 37.0801 14.5093 37.0566 12.4077 36.9629C10.4546 36.877 9.3999 36.5488 8.69678 36.2754C7.76709 35.916 7.09522 35.4785 6.3999 34.7832C5.69678 34.0801 5.26709 33.416 4.90772 32.4863C4.63428 31.7832 4.30615 30.7207 4.22022 28.7754C4.12647 26.666 4.10303 26.0332 4.10303 20.6973C4.10303 15.3535 4.12647 14.7207 4.22022 12.6191C4.30615 10.666 4.63428 9.61133 4.90772 8.9082C5.26709 7.97852 5.70459 7.30664 6.3999 6.61133C7.10303 5.9082 7.76709 5.47852 8.69678 5.11914C9.3999 4.8457 10.4624 4.51758 12.4077 4.43164C14.5093 4.33789 15.1421 4.31445 20.4858 4.31445ZM20.4858 0.712891C15.0562 0.712891 14.3765 0.736328 12.2437 0.830078C10.1187 0.923828 8.65772 1.26758 7.39209 1.75977C6.07178 2.27539 4.95459 2.95508 3.84522 4.07227C2.72803 5.18164 2.04834 6.29883 1.53271 7.61133C1.04053 8.88477 0.696777 10.3379 0.603027 12.4629C0.509277 14.6035 0.48584 15.2832 0.48584 20.7129C0.48584 26.1426 0.509277 26.8223 0.603027 28.9551C0.696777 31.0801 1.04053 32.541 1.53271 33.8066C2.04834 35.127 2.72803 36.2441 3.84522 37.3535C4.95459 38.4629 6.07178 39.1504 7.38428 39.6582C8.65772 40.1504 10.1108 40.4941 12.2358 40.5879C14.3687 40.6816 15.0483 40.7051 20.478 40.7051C25.9077 40.7051 26.5874 40.6816 28.7202 40.5879C30.8452 40.4941 32.3062 40.1504 33.5718 39.6582C34.8843 39.1504 36.0015 38.4629 37.1108 37.3535C38.2202 36.2441 38.9077 35.127 39.4155 33.8145C39.9077 32.541 40.2515 31.0879 40.3452 28.9629C40.439 26.8301 40.4624 26.1504 40.4624 20.7207C40.4624 15.291 40.439 14.6113 40.3452 12.4785C40.2515 10.3535 39.9077 8.89258 39.4155 7.62695C38.9233 6.29883 38.2437 5.18164 37.1265 4.07227C36.0171 2.96289 34.8999 2.27539 33.5874 1.76758C32.314 1.27539 30.8608 0.931641 28.7358 0.837891C26.5952 0.736328 25.9155 0.712891 20.4858 0.712891Z" fill="#FFFDFA"/>
<path d="M20.4858 10.4395C14.814 10.4395 10.2124 15.041 10.2124 20.7129C10.2124 26.3848 14.814 30.9863 20.4858 30.9863C26.1577 30.9863 30.7593 26.3848 30.7593 20.7129C30.7593 15.041 26.1577 10.4395 20.4858 10.4395ZM20.4858 27.377C16.8062 27.377 13.8218 24.3926 13.8218 20.7129C13.8218 17.0332 16.8062 14.0488 20.4858 14.0488C24.1655 14.0488 27.1499 17.0332 27.1499 20.7129C27.1499 24.3926 24.1655 27.377 20.4858 27.377Z" fill="#FFFDFA"/>
<path d="M33.564 10.0332C33.564 11.3613 32.4858 12.4316 31.1655 12.4316C29.8374 12.4316 28.7671 11.3535 28.7671 10.0332C28.7671 8.70508 29.8452 7.63477 31.1655 7.63477C32.4858 7.63477 33.564 8.71289 33.564 10.0332Z" fill="#FFFDFA"/>
</g>
<defs>
<clipPath id="clip0_381_2440">
<rect width="40" height="40" fill="white" transform="translate(0.48584 0.712891)"/>
</clipPath>
</defs>
</svg>
